<svg width="25" height="25" viewBox="0 0 25 25" fill="none" xmlns="http://www.w3.org/2000/svg">
<path fill-rule="evenodd" clip-rule="evenodd" d="M8.24659 1.09318C8.17576 1.13779 7.03111 2.26381 5.70288 3.59547L3.28796 6.01661V6.20826V6.39991L7.48464 10.5964L11.6813 14.7929H11.8941H12.1069L14.3314 12.5712L16.5558 10.3495L16.9106 10.3423C17.511 10.3302 18.1071 10.1179 18.6335 9.72885C18.8661 9.55691 19.5592 8.84621 19.5592 8.77963C19.5592 8.75537 20.3635 8.73953 21.5964 8.73953C24.3265 8.73953 23.9811 9.1998 23.9811 5.56141V2.72245L23.8556 2.59696L23.7302 2.47147H22.2893H20.8485L20.7159 2.58996C20.6022 2.69149 20.5798 2.74675 20.559 2.97635L20.5347 3.24424H19.9353C19.1516 3.24424 19.0223 3.30138 18.9392 3.68429C18.8777 3.96756 18.354 3.79476 17.0262 3.05302C14.8967 1.86355 13.9914 1.56019 12.9746 1.69552C12.5781 1.74828 12.5085 1.77005 11.1445 2.26677L10.2644 2.5873L9.46758 1.79954C8.59335 0.935235 8.54338 0.906342 8.24659 1.09318ZM8.97717 2.55858C9.50531 3.08887 9.50201 3.05865 9.04706 3.20153C8.59305 3.34406 7.95109 3.29164 7.62936 3.08574L7.52731 3.02044L7.99355 2.55278C8.55175 1.99282 8.41295 1.992 8.97717 2.55858ZM14.25 2.66728C14.5939 2.77817 15.9465 3.44491 16.7955 3.92214C17.7884 4.48017 18.2711 4.661 18.7677 4.661H18.9152L18.9137 6.43194L18.9123 8.20288L18.6976 8.47176C17.6272 9.81214 15.9614 9.81514 14.7698 8.47884C14.6503 8.34473 14.5035 8.28621 13.117 7.8198C10.945 7.08918 10.9431 7.0885 10.7114 6.85177C10.2738 6.40476 10.3691 5.77941 10.917 5.50306C11.1752 5.37281 11.3506 5.41218 13.3828 6.05628C14.463 6.39866 15.4033 6.6788 15.4723 6.6788C15.8425 6.6788 16.0238 6.18598 15.7462 5.93474C15.7052 5.89756 14.9669 5.64366 14.1057 5.37049L12.5398 4.87377L11.7364 4.0718L10.9331 3.26983L11.8652 2.93221C13.0505 2.50298 13.5635 2.44597 14.25 2.66728ZM23.1225 5.6055V7.88089H22.2853H21.4482V5.6055V3.33011H22.2853H23.1225V5.6055ZM7.23769 3.85538C8.0479 4.25885 8.92354 4.26078 9.72049 3.86083L10.092 3.67438L10.5314 4.11228L10.9708 4.55019L10.7148 4.64292C10.381 4.76377 10.0284 5.03326 9.85607 5.29926C9.74891 5.46464 9.6864 5.51783 9.57452 5.53882C8.35513 5.76757 7.45699 7.30698 7.81659 8.55192C8.46181 10.7857 11.6218 10.9912 12.4431 8.85278C12.5673 8.52955 12.5184 8.53268 13.2869 8.7983L13.9482 9.02687L13.9537 9.58086C13.9598 10.1966 14.061 10.5902 14.3197 11.0034L14.4478 11.2081L13.963 11.6939L13.4783 12.1796L13.2237 12.0297C12.4137 11.5526 11.281 11.562 10.483 12.0522L10.2723 12.1816L8.09547 10.0052L5.91865 7.82868L6.06479 7.58646C6.53421 6.80841 6.53309 5.63813 6.06222 4.87162L5.9196 4.63953L6.39567 4.15637C6.65751 3.89063 6.88162 3.67811 6.89372 3.68412C6.90579 3.69013 7.0606 3.7672 7.23769 3.85538ZM20.5466 6.01335V7.88089H20.1817H19.8167V6.01335V4.14581H20.1817H20.5466V6.01335ZM5.43292 5.5466C5.6095 6.01859 5.58907 6.57559 5.37934 7.00735L5.28768 7.196L4.80298 6.71271L4.31828 6.22938L4.79835 5.74799C5.33499 5.20979 5.30988 5.21774 5.43292 5.5466ZM16.8121 6.36763C16.451 6.54871 16.489 7.02337 16.8749 7.1507C17.397 7.32303 17.6415 6.52849 17.1266 6.33272C16.9879 6.28 16.9865 6.28013 16.8121 6.36763ZM9.59899 6.6062C9.59916 7.13903 10.2635 7.7639 11.1626 8.07696C11.7603 8.28509 11.7528 8.27509 11.5767 8.63276C10.695 10.4238 7.89696 9.08517 8.74465 7.27787C8.98489 6.76565 9.59886 6.28296 9.59899 6.6062ZM15.0783 9.87894C15.2169 9.96253 15.3738 10.0419 15.427 10.0553C15.5615 10.0893 15.5533 10.1084 15.294 10.3645L15.0643 10.5913L14.9754 10.3845C14.9265 10.2708 14.8753 10.1246 14.8616 10.0597C14.8478 9.99477 14.8266 9.89332 14.8144 9.83429C14.7863 9.69927 14.778 9.6979 15.0783 9.87894ZM12.1291 12.563C12.906 12.689 12.9206 12.7395 12.3466 13.3118L11.8743 13.7826L11.4021 13.3118C10.8347 12.7461 10.8488 12.6875 11.5816 12.5656C11.7072 12.5447 11.8196 12.5255 11.8314 12.5229C11.8432 12.5203 11.9772 12.5384 12.1291 12.563ZM8.43979 14.399C7.73686 14.5971 7.15243 14.9929 6.62265 15.6296L6.40791 15.8877L4.32919 15.9092L2.25046 15.9306L2.12523 16.0708L2 16.2111V19.0647V21.9183L2.12523 22.0585L2.25042 22.1987L3.62394 22.2116C5.35801 22.228 5.43455 22.2022 5.43455 21.602V21.4104L6.11708 21.3967C6.89553 21.381 6.94666 21.3607 7.02913 21.0331L7.07541 20.8492L7.27461 20.8741C7.62601 20.9181 8.01794 21.0796 8.65505 21.4431C11.3431 22.9767 12.5351 23.283 13.8229 22.7709C14.0159 22.6942 18.7759 20.9829 20.1968 20.4794C22.1278 19.7952 22.5075 17.6715 20.8148 17.0228C20.3128 16.8303 17.9593 17.2822 16.3991 17.8705C16.3731 17.8804 16.2981 17.7824 16.2326 17.6529C15.9059 17.0073 15.6725 16.8773 13.5334 16.1496L11.8224 15.5676L11.6505 15.3723C10.9463 14.5723 9.4425 14.1164 8.43979 14.399ZM9.67588 15.2468C10.2162 15.3571 10.5949 15.5649 11.0038 15.9755C11.3359 16.309 11.3792 16.3377 11.7337 16.4581C11.9409 16.5285 12.7431 16.8004 13.5164 17.0623C15.1682 17.6217 15.2581 17.6669 15.4498 18.0343C15.7268 18.565 15.3446 19.2202 14.7538 19.2275C14.6149 19.2292 13.9758 19.0451 12.564 18.5967C10.258 17.8641 10.264 17.8648 10.1113 18.3032C9.98259 18.6723 10.0924 18.7302 12.1749 19.391C14.8551 20.2415 14.8316 20.2376 15.4656 19.9243C15.9 19.7096 16.1298 19.4473 16.3503 18.9144L16.4125 18.7641L18.1683 18.2804C19.4924 17.9156 19.986 17.7969 20.1758 17.7974C21.1281 17.8002 21.2986 18.9956 20.4121 19.454C20.2934 19.5154 14.162 21.7295 13.3126 22.0177C12.473 22.3025 11.5318 22.0419 9.68365 21.0128C8.20276 20.1882 7.93766 20.0752 7.31987 20.0053L7.06597 19.9766L7.06627 18.2327C7.06657 16.2966 7.04459 16.4521 7.36821 16.0972C8.07641 15.3207 8.77543 15.0631 9.67588 15.2468ZM4.53298 19.0647V21.3186H3.69581H2.85864V19.0647V16.8107H3.69581H4.53298V19.0647ZM6.1644 18.6783V20.5458H5.79947H5.43455V18.6783V16.8107H5.79947H6.1644V18.6783ZM8.69407 17.6231C8.41596 17.9012 8.61448 18.3563 9.01396 18.3563C9.16662 18.3563 9.37635 18.1632 9.40825 17.9933C9.48441 17.5872 8.9876 17.3296 8.69407 17.6231Z" fill="#F16667"/>
</svg>
