<svg width="25" height="25" viewBox="0 0 25 25" fill="none" xmlns="http://www.w3.org/2000/svg">
<path fill-rule="evenodd" clip-rule="evenodd" d="M5.57409 4.22456C3.22352 5.58362 1.23277 6.74872 1.15016 6.81368L1 6.93177V12.0791V17.2264L1.15016 17.3376C1.23277 17.3988 2.94283 18.3959 4.95035 19.5534C6.95787 20.7108 8.89096 21.8261 9.24617 22.0318C10.0712 22.5097 9.76068 22.6022 12.3538 21.1063C13.5928 20.3916 14.6326 19.7968 14.6644 19.7846C14.7097 19.7672 14.7223 19.9922 14.7223 20.8218C14.7223 23.065 14.6123 23.0135 19.3699 22.9961L22.8309 22.9834L23.0619 22.8604C23.3372 22.7139 23.5437 22.5045 23.6922 22.221L23.8012 22.0131V16.9539V11.8947L23.665 11.6489C23.3412 11.0643 23.0492 10.9297 22.061 10.9094L21.2911 10.8936L21.2316 10.7498C21.0161 10.2297 20.658 10.0707 19.7006 10.0701L18.9729 10.0696V8.50757C18.9729 6.61011 19.6549 7.25566 14.5144 4.28721C9.24256 1.24294 10.7132 1.25325 5.57409 4.22456ZM11.8068 3.48466C12.7737 4.04312 13.5497 4.51471 13.5313 4.53264C13.513 4.55061 11.7155 5.59415 9.53706 6.85166L5.57617 9.13806L3.79745 8.11378C2.8191 7.55048 2.0185 7.07916 2.01831 7.06646C2.01776 7.03203 9.9807 2.44404 10.0174 2.45762C10.0347 2.46404 10.8399 2.92616 11.8068 3.48466ZM16.1251 5.97759C17.1324 6.5604 17.9565 7.05019 17.9565 7.06613C17.9565 7.10869 10.0438 11.6646 9.98121 11.6582C9.91389 11.6512 6.26751 9.5464 6.26871 9.51521C6.26996 9.48213 14.2314 4.89469 14.2655 4.90744C14.281 4.91326 15.1179 5.39483 16.1251 5.97759ZM5.73645 9.98759L9.68616 12.2643V16.878C9.68616 20.5583 9.67442 21.4872 9.62822 21.4694C9.59634 21.4572 7.93821 20.5072 5.94353 19.3584C3.94881 18.2095 2.1663 17.183 1.98237 17.0771L1.648 16.8846L1.6474 12.2709C1.64689 8.16983 1.6546 7.66021 1.71679 7.68405C1.75528 7.69879 3.56413 8.7354 5.73645 9.98759ZM18.3261 8.85742V10.0478L18.0889 10.1041C17.747 10.1853 17.2634 10.6135 17.2634 10.835C17.2634 10.8793 17.0748 10.8973 16.4895 10.909C15.4833 10.929 15.1844 11.0732 14.8496 11.6996L14.7454 11.8947L14.7327 15.4374L14.7201 18.9801L12.5566 20.2309C11.3666 20.9189 10.3795 21.4818 10.363 21.4818C10.3465 21.4818 10.333 19.4079 10.333 16.873V12.2643L14.2949 9.96712C16.474 8.7037 18.2724 7.66931 18.2915 7.66853C18.3105 7.66774 18.3261 8.20277 18.3261 8.85742ZM20.5313 10.8677C20.713 11.0494 20.7129 11.3539 20.5312 11.5355L20.4032 11.6636H19.2733H18.1434L18.0153 11.5355C17.7837 11.304 17.864 10.8859 18.1644 10.759C18.2152 10.7375 18.7398 10.7243 19.3301 10.7297L20.4033 10.7396L20.5313 10.8677ZM17.3087 11.6844C17.7006 12.6307 20.7638 12.6516 21.2101 11.7111L21.2874 11.5481H21.9223C22.6994 11.5481 22.9014 11.6211 23.0743 11.9639L23.1791 12.1717L23.1667 17.0231L23.1543 21.8745L23.0516 22.0186C22.808 22.36 23.088 22.3365 19.2651 22.3365C14.7796 22.3365 15.3955 23.1776 15.3801 17.0309L15.3679 12.1709L15.4725 11.9635C15.6449 11.6215 15.8478 11.5481 16.6208 11.5481H17.2522L17.3087 11.6844ZM16.2557 13.4905C16.1056 13.6303 16.0982 15.3266 16.247 15.4754C16.4925 15.7209 17.1248 15.5544 17.1248 15.2444C17.1248 15.097 16.9865 14.921 16.8707 14.921C16.814 14.921 16.8014 14.8414 16.8014 14.482V14.0431H17.2221C17.6034 14.0431 17.6557 14.0539 17.7801 14.1586C18.1597 14.4781 18.5836 13.8391 18.2192 13.4967C18.059 13.3462 16.4161 13.341 16.2557 13.4905ZM18.8805 13.7059C18.8424 13.7192 18.5819 13.9568 18.3015 14.2338L17.7919 14.7376L17.6107 14.5521C17.3284 14.263 16.94 14.3514 16.94 14.7046C16.94 14.8606 17.6327 15.5216 17.7962 15.5216C17.9832 15.5216 19.2964 14.2203 19.2964 14.035C19.2964 13.8257 19.064 13.6418 18.8805 13.7059ZM19.8046 14.2741C19.7533 14.3254 19.7122 14.4281 19.7122 14.5051C19.7122 14.8155 19.766 14.8286 21.044 14.8286C22.1833 14.8286 22.1917 14.8278 22.2915 14.7216C22.4218 14.5829 22.4193 14.4083 22.2851 14.2822C22.1252 14.132 19.9538 14.1249 19.8046 14.2741ZM16.255 16.4602C16.0946 16.631 16.1 18.2726 16.2615 18.4243C16.4323 18.5848 18.0739 18.5794 18.2257 18.4179C18.3861 18.2471 18.3807 16.6054 18.2192 16.4537C18.0484 16.2933 16.4067 16.2987 16.255 16.4602ZM17.6793 17.439V17.8779H17.2403H16.8014V17.439V17.0001H17.2403H17.6793V17.439ZM19.8046 17.2311C19.7533 17.2824 19.7122 17.3851 19.7122 17.4621C19.7122 17.7725 19.766 17.7855 21.044 17.7855C22.1833 17.7855 22.1917 17.7848 22.2915 17.6786C22.4218 17.5399 22.4193 17.3653 22.2851 17.2391C22.1252 17.089 19.9538 17.0819 19.8046 17.2311ZM16.255 19.4172C16.1058 19.576 16.099 21.2414 16.247 21.3894C16.4925 21.6348 17.1248 21.4684 17.1248 21.1584C17.1248 21.011 16.9865 20.8349 16.8707 20.8349C16.814 20.8349 16.8014 20.7554 16.8014 20.396V19.9571H17.2403C17.5741 19.9571 17.6793 19.9718 17.6793 20.0183C17.6793 20.1179 17.8839 20.2805 18.0092 20.2805C18.314 20.2805 18.4677 19.6441 18.2192 19.4107C18.0484 19.2503 16.4067 19.2557 16.255 19.4172ZM18.3074 20.1852L17.7948 20.6906L17.6002 20.5086C17.3182 20.245 16.94 20.3279 16.94 20.6533C16.94 20.8223 17.6172 21.4818 17.7907 21.4818C17.9911 21.4818 19.2964 20.1906 19.2964 19.9923C19.2964 19.5024 18.927 19.5745 18.3074 20.1852ZM19.8046 20.1881C19.7533 20.2394 19.7122 20.3421 19.7122 20.4191C19.7122 20.7295 19.766 20.7425 21.044 20.7425C22.1833 20.7425 22.1917 20.7418 22.2915 20.6356C22.4218 20.4969 22.4193 20.3223 22.2851 20.1961C22.1252 20.046 19.9538 20.0389 19.8046 20.1881Z" fill="#F16667"/>
</svg>
