<svg width="25" height="25" viewBox="0 0 25 25" fill="none" xmlns="http://www.w3.org/2000/svg">
<path fill-rule="evenodd" clip-rule="evenodd" d="M12.0801 1.04649C10.0913 1.366 8.57253 3.00969 8.4458 4.97954L8.42157 5.35626L7.35118 5.35673C6.20185 5.3572 6.03632 5.38035 5.72034 5.58449C5.37013 5.8108 5.07031 6.23823 5.00677 6.6018C4.96243 6.85568 3.9994 19.1732 4 19.479C4.00307 21.043 5.11491 22.4627 6.68588 22.9086C7.11558 23.0305 18.1959 23.0305 18.6256 22.9086C20.1966 22.4627 21.3084 21.043 21.3115 19.479C21.3121 19.1732 20.349 6.85568 20.3047 6.6018C20.2412 6.23823 19.9413 5.8108 19.5911 5.58449C19.2752 5.38035 19.1096 5.3572 17.9603 5.35673L16.8899 5.35626L16.8657 4.97954C16.7114 2.58028 14.393 0.674934 12.0801 1.04649ZM13.402 2.41355C14.6093 2.73631 15.4529 3.76002 15.5797 5.05638L15.609 5.35626H12.6557H9.70245L9.73247 5.04938C9.91468 3.18686 11.6451 1.94385 13.402 2.41355ZM8.4342 7.508C8.4342 8.65472 8.52997 8.85667 9.07382 8.85667C9.61768 8.85667 9.71345 8.65472 9.71345 7.508V6.64475H12.6557H15.598V7.508C15.598 8.65472 15.6938 8.85667 16.2377 8.85667C16.7815 8.85667 16.8773 8.65472 16.8773 7.508V6.64475H17.8794C18.9657 6.64475 19.052 6.66374 19.052 6.90263C19.052 6.94996 19.2738 9.7959 19.545 13.227C19.9536 18.3983 20.0309 19.5131 19.997 19.7445C19.8584 20.6898 19.2213 21.3984 18.2955 21.6369C17.7922 21.7666 7.51932 21.7666 7.01597 21.6369C6.09022 21.3984 5.45311 20.6898 5.31448 19.7445C5.28058 19.5131 5.35789 18.3983 5.76652 13.227C6.03764 9.7959 6.25946 6.94996 6.25946 6.90263C6.25946 6.66374 6.34577 6.64475 7.43211 6.64475H8.4342V7.508ZM14.7665 11.8375C14.6961 11.8823 13.9964 12.5677 13.2117 13.3607L11.7847 14.8026L11.1626 14.1847C10.3955 13.4226 10.1492 13.3384 9.77882 13.7114C9.3808 14.1124 9.46736 14.311 10.4955 15.3561C11.5193 16.3967 11.6906 16.5005 12.0649 16.3075C12.2386 16.218 15.5557 12.8624 15.6485 12.6824C15.9342 12.1279 15.286 11.507 14.7665 11.8375Z" fill="#F16667"/>
</svg>
