<svg width="25" height="25" viewBox="0 0 25 25" fill="none" xmlns="http://www.w3.org/2000/svg">
<path fill-rule="evenodd" clip-rule="evenodd" d="M4.97864 2.03953C4.60682 2.15305 4.22556 2.49921 4.09259 2.8439C3.96914 3.16399 3.96914 21.8577 4.09259 22.1778C4.19128 22.4336 4.48284 22.7491 4.75203 22.8912L4.95812 23H12.2862H19.6142L19.8195 22.8906C20.5384 22.5073 20.556 22.4372 20.5705 19.9106L20.5825 17.8065L20.4799 17.704C20.3633 17.5874 20.1909 17.5716 20.0658 17.6661C19.9861 17.7263 19.9831 17.7886 19.9632 19.8129L19.9426 21.8977L19.827 22.0723C19.5874 22.4343 20.3049 22.4028 12.2846 22.4038L5.20132 22.4047L5.02052 22.3124C4.80761 22.2036 4.69985 22.0689 4.64845 21.8473C4.59873 21.6329 4.59873 3.3888 4.64845 3.17433C4.76599 2.66769 4.92511 2.61695 6.39593 2.61695C7.74667 2.61695 7.77028 2.61161 7.77028 2.30745C7.77028 2.00148 7.76654 2.0007 6.34367 2.00468C5.64937 2.00661 5.03509 2.02229 4.97864 2.03953ZM8.48744 2.10132C8.35845 2.23031 8.35825 2.38759 8.48687 2.51617L8.58761 2.61695H13.9793H19.371L19.5518 2.70932C19.9902 2.93335 19.9611 2.41 19.9622 10.0768L19.9632 16.8183L20.053 16.902C20.1757 17.0162 20.3543 17.0088 20.4788 16.8843L20.5802 16.7829L20.5693 9.89495L20.5584 3.00696L20.4641 2.80169C20.3454 2.54342 20.0853 2.27284 19.8195 2.13112L19.6142 2.02168L14.1015 2.01084L8.5888 2L8.48744 2.10132ZM6.02551 3.69071C5.84606 3.78886 5.84077 3.82158 5.84077 4.83396C5.84077 5.7513 5.84524 5.80845 5.92402 5.89298C6.04956 6.02776 6.19744 6.04997 6.32672 5.95349L6.43604 5.87192L6.447 4.84324L6.45796 3.81456L6.34909 3.72893C6.22786 3.63356 6.14735 3.62408 6.02551 3.69071ZM7.13949 3.72839L7.03132 3.81345V4.83384V5.85422L7.13949 5.93929C7.2629 6.03638 7.31524 6.0429 7.45593 5.97882C7.60492 5.91092 7.64712 5.77368 7.64712 5.35686V4.98052L7.95609 5.43063C8.36588 6.02763 8.52899 6.12185 8.74842 5.88834C8.87339 5.75528 8.88849 3.91888 8.76583 3.77113C8.49582 3.4459 8.24884 3.66045 8.22187 4.2437L8.20134 4.68744L7.87423 4.20896C7.48024 3.63257 7.36069 3.55437 7.13949 3.72839ZM9.23322 3.72839C9.07151 3.85558 9.09109 3.97459 9.43504 4.957C9.75883 5.88193 9.80473 5.96531 10.0129 6.00694C10.4286 6.09012 11.1851 3.89975 10.808 3.70475C10.5297 3.56081 10.4236 3.67182 10.1994 4.34161L10.0444 4.80453L9.86708 4.28397C9.65024 3.64715 9.50183 3.51709 9.23322 3.72839ZM11.8272 3.70056C10.9734 3.93046 10.6905 5.03389 11.3235 5.66447C11.894 6.23274 12.8268 6.08002 13.1869 5.35949C13.6452 4.44227 12.8185 3.43363 11.8272 3.70056ZM13.9843 3.69132C13.824 3.76891 13.8051 3.89199 13.8051 4.85946V5.78439L13.9251 5.90439C14.0711 6.05034 14.1747 6.05571 14.3263 5.92533L14.4415 5.82622V4.83384V3.84145L14.3263 3.74235C14.2027 3.63602 14.123 3.62416 13.9843 3.69132ZM15.7483 3.71677C15.1709 3.92311 14.8358 4.48714 14.9536 5.0545C15.134 5.92373 16.1957 6.3185 16.802 5.74182C17.1682 5.3934 16.7851 4.94 16.399 5.2649C16.0739 5.53844 15.5704 5.27652 15.5704 4.83384C15.5704 4.4192 16.0299 4.15502 16.3915 4.36172C16.5948 4.47799 16.8033 4.41481 16.8774 4.21451C17.0163 3.83899 16.2955 3.52124 15.7483 3.71677ZM17.5615 3.69288C17.3852 3.79395 17.3795 3.83008 17.3781 4.83634C17.3764 6.067 17.3662 6.05181 18.1793 6.0184C18.9151 5.98818 18.9549 5.36753 18.2211 5.36753C17.8565 5.36753 17.8735 5.18074 18.2405 5.15422C18.84 5.11083 18.8172 4.50541 18.2161 4.50541C18.0051 4.50541 17.9926 4.4997 17.9926 4.40278C17.9926 4.30585 18.005 4.30014 18.2165 4.30014C18.7168 4.30014 18.9227 3.897 18.5251 3.6958C18.3965 3.63077 17.6737 3.62855 17.5615 3.69288ZM12.4662 4.38586C12.8971 4.7248 12.677 5.36753 12.1301 5.36753C11.7634 5.36753 11.5095 5.00823 11.6306 4.66072C11.746 4.32946 12.2032 4.17904 12.4662 4.38586ZM14.482 7.37969C14.3685 7.50519 14.3857 7.70204 14.5203 7.81785L14.6334 7.91515L16.604 7.90374L18.5746 7.89232L18.6531 7.7954C18.7548 7.66985 18.7525 7.54008 18.6465 7.40522L18.5614 7.29705H16.5591C14.6047 7.29705 14.555 7.29902 14.482 7.37969ZM16.5998 8.75999C16.4869 8.90347 16.4923 9.04371 16.6155 9.16683L16.7162 9.26761H17.6231H18.53L18.6308 9.16683C18.7539 9.04371 18.7593 8.90347 18.6465 8.75999L18.5614 8.65181H17.6231H16.6848L16.5998 8.75999ZM6.64213 10.4699C6.55054 10.5218 6.43813 10.6342 6.38624 10.7258L6.29371 10.8892L6.29301 14.2632C6.29215 18.6822 6.02879 18.215 8.52135 18.2164L10.1551 18.2173L10.2559 18.1165C10.379 17.9934 10.3844 17.8531 10.2715 17.7096L10.1865 17.6015H8.59656C6.69172 17.6015 6.90816 17.7183 6.90816 16.6901V15.8772H10.7877H14.6673V16.7393V17.6015H12.902C10.9155 17.6015 10.9724 17.5925 10.9724 17.9064C10.9724 18.2361 10.7638 18.2174 14.4367 18.2164C18.0111 18.2154 17.8651 18.2254 18.1027 17.9661C18.2799 17.7729 18.28 17.7715 18.28 14.2668V10.8965L18.1756 10.7183C17.9568 10.3449 18.493 10.376 12.2775 10.3767L6.80552 10.3774L6.64213 10.4699ZM14.6673 11.8335V12.6751H10.7877H6.90816V11.8608C6.90816 11.413 6.92047 11.0343 6.93554 11.0192C6.95056 11.0042 8.69636 10.9919 10.8151 10.9919H14.6673V11.8335ZM17.6548 11.8437L17.6658 12.6751H16.495H15.3241V11.8328V10.9906L16.4839 11.0015L17.6436 11.0124L17.6548 11.8437ZM14.6673 14.2761V15.2614H10.7877H6.90816V14.2761V13.2909H10.7877H14.6673V14.2761ZM17.6642 14.2761V15.2614H16.4941H15.3241V14.2761V13.2909H16.4941H17.6642V14.2761ZM17.6642 16.6901C17.6642 17.7085 17.8074 17.6015 16.4449 17.6015H15.3241V16.7393V15.8772H16.4941H17.6642V16.6901ZM14.3746 19.9007C14.2188 19.983 14.1184 20.0897 13.8999 20.4049C13.7998 20.5493 13.7298 20.6044 13.603 20.6386C13.1678 20.7558 13.3137 21.2994 13.7639 21.2381C14.0064 21.2051 14.1693 21.0836 14.4337 20.7386C14.7274 20.3553 14.7697 20.355 15.0498 20.7338C15.5672 21.4333 16.0755 21.4349 16.6098 20.7386C16.8961 20.3656 16.9574 20.3638 17.2126 20.7215C17.5549 21.2015 17.9853 21.3894 18.2153 21.1595C18.3941 20.9807 18.2879 20.6394 18.0535 20.6394C17.9888 20.6394 17.9107 20.5827 17.8204 20.4701C17.1434 19.6254 16.6922 19.575 16.1628 20.2848C15.8422 20.7147 15.8096 20.7154 15.5072 20.2998C15.1691 19.8352 14.7668 19.6934 14.3746 19.9007Z" fill="#F16667"/>
</svg>
